<svg width="1432" height="3098" viewBox="0 0 1432 3098" fill="none" xmlns="http://www.w3.org/2000/svg">
<rect x="-6" y="969.068" width="69" height="837.932" fill="#A56330" fill-opacity="0.76"/>
<rect x="268.994" y="969" width="69" height="837.932" fill="#A56330" fill-opacity="0.76"/>
<rect x="405.994" y="969" width="69" height="837.932" fill="#A56330" fill-opacity="0.76"/>
<rect x="543" y="969.068" width="69" height="837.932" fill="#A56330" fill-opacity="0.76"/>
<rect x="680.969" y="969" width="69" height="837.932" fill="#A56330" fill-opacity="0.76"/>
<rect x="822.969" y="969" width="69" height="837.932" fill="#A56330" fill-opacity="0.76"/>
<rect x="954.969" y="969" width="69" height="837.932" fill="#A56330" fill-opacity="0.76"/>
<rect x="1091.97" y="969" width="69" height="837.932" fill="#A56330" fill-opacity="0.76"/>
<rect x="1228.97" y="969" width="69" height="837.932" fill="#A56330" fill-opacity="0.76"/>
<rect x="1366.97" y="969" width="69" height="837.932" fill="#A56330" fill-opacity="0.76"/>
<rect x="130.994" y="969" width="69" height="837.932" fill="#A56330" fill-opacity="0.76"/>
<rect x="-5" y="-3.98441" width="69" height="192.984" fill="#A56330" fill-opacity="0.76"/>
<rect x="269.994" y="-4" width="69" height="192.984" fill="#A56330" fill-opacity="0.76"/>
<rect x="406.994" y="-4" width="69" height="192.984" fill="#A56330" fill-opacity="0.76"/>
<rect x="544" y="-3.98441" width="69" height="192.984" fill="#A56330" fill-opacity="0.76"/>
<rect x="681.969" y="-4" width="69" height="192.984" fill="#A56330" fill-opacity="0.76"/>
<rect x="823.969" y="-4" width="69" height="192.984" fill="#A56330" fill-opacity="0.76"/>
<rect x="955.969" y="-4" width="69" height="192.984" fill="#A56330" fill-opacity="0.76"/>
<rect x="1092.97" y="-4" width="69" height="192.984" fill="#A56330" fill-opacity="0.76"/>
<rect x="1229.97" y="-4" width="69" height="192.984" fill="#A56330" fill-opacity="0.76"/>
<rect x="1367.97" y="-4" width="69" height="192.984" fill="#A56330" fill-opacity="0.76"/>
<rect x="131.994" y="-4" width="69" height="192.984" fill="#A56330" fill-opacity="0.76"/>
<path d="M-6 1807H1443V3098H-6V1807Z" fill="#A56330" fill-opacity="0.76"/>
<rect x="143.931" y="2003.92" width="1148.13" height="923.291" rx="127" fill="#FEFAE0"/>
</svg>
