<svg width="28" height="28" viewBox="0 0 28 28" fill="none" xmlns="http://www.w3.org/2000/svg">
<path d="M14.875 13.125V19.25C14.875 19.4821 14.7828 19.7046 14.6187 19.8687C14.4546 20.0328 14.2321 20.125 14 20.125C13.7679 20.125 13.5454 20.0328 13.3813 19.8687C13.2172 19.7046 13.125 19.4821 13.125 19.25V13.125C13.125 12.8929 13.2172 12.6704 13.3813 12.5063C13.5454 12.3422 13.7679 12.25 14 12.25C14.2321 12.25 14.4546 12.3422 14.6187 12.5063C14.7828 12.6704 14.875 12.8929 14.875 13.125ZM18.9044 13.0375L18.2919 19.1625C18.2798 19.2772 18.2905 19.3931 18.3233 19.5036C18.3562 19.6142 18.4105 19.7171 18.4833 19.8066C18.5561 19.896 18.6458 19.9702 18.7474 20.0248C18.8489 20.0795 18.9603 20.1135 19.075 20.125C19.1045 20.1266 19.1341 20.1266 19.1636 20.125C19.3803 20.1247 19.5892 20.044 19.7499 19.8986C19.9105 19.7531 20.0114 19.5531 20.0331 19.3375L20.6456 13.2125C20.6688 12.9816 20.5994 12.7509 20.4525 12.5712C20.3056 12.3916 20.0934 12.2776 19.8625 12.2544C19.6316 12.2312 19.4009 12.3006 19.2212 12.4475C19.0416 12.5944 18.9276 12.8066 18.9044 13.0375ZM9.09562 13.0375C9.07242 12.8066 8.95843 12.5944 8.77875 12.4475C8.59907 12.3006 8.3684 12.2312 8.1375 12.2544C7.90659 12.2776 7.69437 12.3916 7.5475 12.5712C7.40064 12.7509 7.33117 12.9816 7.35437 13.2125L7.96687 19.3375C7.98864 19.5541 8.09035 19.7548 8.25214 19.9004C8.41394 20.046 8.6242 20.1261 8.84187 20.125C8.87138 20.1266 8.90096 20.1266 8.93047 20.125C9.0448 20.1135 9.15575 20.0796 9.25698 20.0252C9.35821 19.9709 9.44775 19.8971 9.52047 19.8081C9.59319 19.7192 9.64767 19.6167 9.68081 19.5067C9.71394 19.3967 9.72508 19.2812 9.71359 19.1669L9.09562 13.0375ZM26.2423 9.74094L24.5941 22.1069C24.5366 22.5266 24.3293 22.9113 24.0106 23.1903C23.6918 23.4693 23.283 23.6236 22.8594 23.625H5.14062C4.71702 23.6236 4.30818 23.4693 3.98942 23.1903C3.67065 22.9113 3.46343 22.5266 3.40594 22.1069L1.75765 9.74094C1.74113 9.61733 1.75122 9.49162 1.78724 9.37224C1.82327 9.25285 1.88439 9.14254 1.96652 9.0487C2.04866 8.95487 2.1499 8.87967 2.26346 8.82815C2.37703 8.77664 2.50029 8.74999 2.625 8.75H7.47797L13.3437 2.04859C13.4259 1.95549 13.5268 1.88092 13.64 1.82984C13.7531 1.77877 13.8759 1.75235 14 1.75235C14.1241 1.75235 14.2469 1.77877 14.36 1.82984C14.4732 1.88092 14.5741 1.95549 14.6562 2.04859L20.522 8.75H25.375C25.4997 8.74999 25.623 8.77664 25.7365 8.82815C25.8501 8.87967 25.9513 8.95487 26.0335 9.0487C26.1156 9.14254 26.1767 9.25285 26.2128 9.37224C26.2488 9.49162 26.2589 9.61733 26.2423 9.74094ZM9.80328 8.75H18.1967L14 3.9539L9.80328 8.75ZM24.3753 10.5H3.62469L5.14062 21.875H22.8594L24.3753 10.5Z" fill="#432818"/>
</svg>
