<svg width="96" height="95" viewBox="0 0 96 95" fill="none" xmlns="http://www.w3.org/2000/svg">
<path d="M92.2057 17.9874C92.1636 17.2664 91.8582 16.5859 91.3475 16.0752C90.8368 15.5645 90.1563 15.2591 89.4353 15.217C70.3669 14.1118 55.0561 19.9105 48.4765 30.7709C44.1293 37.9511 44.1367 46.6711 48.4175 54.9896C45.9809 57.8902 44.2002 61.2833 43.1973 64.9364L37.2034 58.9204C40.0843 52.9044 39.9738 46.6343 36.835 41.4251C31.9721 33.3976 20.7469 29.0947 6.81031 29.9125C6.08929 29.9547 5.40884 30.26 4.89814 30.7707C4.38744 31.2815 4.08204 31.9619 4.03993 32.6829C3.2184 46.6195 7.52501 57.8447 15.5525 62.7076C18.2015 64.3261 21.2456 65.1827 24.3499 65.1833C27.363 65.1461 30.3293 64.4323 33.0294 63.0944L42.2394 72.3044V82.8665C42.2394 83.6481 42.5499 84.3978 43.1027 84.9505C43.6554 85.5032 44.405 85.8137 45.1866 85.8137C45.9683 85.8137 46.7179 85.5032 47.2706 84.9505C47.8233 84.3978 48.1339 83.6481 48.1339 82.8665V72.0024C48.1207 67.3137 49.7163 62.7624 52.6541 59.1083C56.4448 61.0893 60.6488 62.1495 64.9256 62.2029C69.0604 62.2162 73.1185 61.0866 76.6518 58.9389C87.5122 52.3666 93.3256 37.0558 92.2057 17.9874ZM18.5918 57.6679C12.9405 54.2454 9.74278 46.1443 9.82015 35.7112C20.2533 35.6228 28.3544 38.8315 31.7768 44.4828C33.5636 47.43 33.8546 50.8672 32.6831 54.4075L23.6904 45.4149C23.1332 44.8855 22.3913 44.5947 21.6228 44.6046C20.8542 44.6144 20.12 44.9241 19.5765 45.4675C19.033 46.011 18.7234 46.7453 18.7135 47.5138C18.7037 48.2823 18.9945 49.0243 19.5238 49.5815L28.5165 58.5741C24.9762 59.7457 21.5427 59.4546 18.5918 57.6679ZM73.5977 53.9028C68.6612 56.8906 62.8588 57.119 56.9644 54.6396L76.7439 34.8565C77.2733 34.2993 77.564 33.5573 77.5542 32.7888C77.5443 32.0203 77.2347 31.286 76.6912 30.7425C76.1477 30.1991 75.4135 29.8894 74.6449 29.8796C73.8764 29.8697 73.1345 30.1605 72.5773 30.6899L52.7941 50.4472C50.3037 44.5528 50.5285 38.7468 53.5309 33.8139C58.6664 25.3407 70.8458 20.6178 86.4402 20.9825C86.7939 36.5732 82.0783 48.7673 73.5977 53.9028Z" fill="#432818"/>
</svg>
