<svg width="134" height="134" viewBox="0 0 134 134" fill="none" xmlns="http://www.w3.org/2000/svg">
<g clip-path="url(#clip0_160_77)">
<path d="M59.5978 93.6046C59.5978 94.838 59.2321 96.0437 58.5469 97.0693C57.8616 98.0948 56.8876 98.8941 55.7481 99.3661C54.6086 99.8381 53.3547 99.9616 52.145 99.721C50.9353 99.4804 49.8241 98.8864 48.952 98.0143C48.0798 97.1422 47.4859 96.031 47.2453 94.8213C47.0046 93.6115 47.1281 92.3577 47.6001 91.2181C48.0721 90.0786 48.8714 89.1047 49.897 88.4194C50.9225 87.7342 52.1282 87.3684 53.3616 87.3684C55.0156 87.3684 56.6018 88.0255 57.7713 89.195C58.9408 90.3645 59.5978 91.9507 59.5978 93.6046ZM82.4639 87.3684C81.2305 87.3684 80.0248 87.7342 78.9993 88.4194C77.9737 89.1047 77.1744 90.0786 76.7024 91.2181C76.2304 92.3577 76.1069 93.6115 76.3476 94.8213C76.5882 96.031 77.1821 97.1422 78.0543 98.0143C78.9264 98.8864 80.0376 99.4804 81.2473 99.721C82.457 99.9616 83.7109 99.8381 84.8504 99.3661C85.9899 98.8941 86.9639 98.0948 87.6492 97.0693C88.3344 96.0437 88.7001 94.838 88.7001 93.6046C88.7001 91.9507 88.0431 90.3645 86.8736 89.195C85.7041 88.0255 84.1179 87.3684 82.4639 87.3684ZM113.645 106.077C113.645 111.374 112.088 116.554 109.167 120.973C106.247 125.393 102.093 128.856 97.2201 130.934C92.3476 133.011 86.9719 133.611 81.7614 132.658C76.5508 131.706 71.7351 129.243 67.9128 125.576C65.3388 128.059 62.2974 130.007 58.9649 131.306C55.6324 132.606 52.0751 133.23 48.4994 133.144C44.9236 133.058 41.4004 132.264 38.1342 130.806C34.868 129.348 31.9237 127.256 29.472 124.652C27.0203 122.047 25.11 118.982 23.852 115.634C22.5939 112.286 22.013 108.721 22.143 105.146C22.273 101.572 23.1114 98.0588 24.6094 94.8108C26.1074 91.5628 28.2353 88.6445 30.8697 86.2251C31.4012 82.4769 32.5018 78.8318 34.1333 75.4157C24.2593 55.7197 18.2986 29.5588 25.1116 18.292C26.1257 16.5179 27.5968 15.048 29.3717 14.0353C31.1467 13.0226 33.1606 12.5042 35.2039 12.5339C42.5418 12.5339 48.7157 18.713 54.1412 31.4296C57.3736 39.0274 59.7797 47.7061 61.4167 54.6803C65.7141 53.9205 70.1115 53.9205 74.4088 54.6803C76.0354 47.7061 78.4416 39.0274 81.6844 31.4296C87.0891 18.713 93.2838 12.5339 100.622 12.5339C102.665 12.5042 104.679 13.0226 106.454 14.0353C108.229 15.048 109.7 16.5179 110.714 18.292C117.527 29.5588 111.566 55.7197 101.692 75.4157C103.318 78.8258 104.415 82.4638 104.945 86.2043C107.695 88.7315 109.889 91.8036 111.387 95.225C112.885 98.6464 113.654 102.342 113.645 106.077ZM82.4068 57.0345C87.7992 59.2939 92.5845 62.7903 96.3759 67.2411C99.8281 59.5506 102.413 51.4996 104.083 43.2369C105.896 33.815 105.72 26.0873 103.599 22.595C103.33 22.0431 102.904 21.5829 102.374 21.2723C101.845 20.9616 101.235 20.8143 100.622 20.8489C97.1866 20.8489 93.0759 25.8898 89.3342 34.6829C86.2524 41.9273 83.9554 50.3357 82.4068 57.0345ZM39.4497 67.2411C43.2411 62.7903 48.0263 59.2939 53.4188 57.0345C51.8597 50.3357 49.5731 41.9273 46.4914 34.6881C42.7497 25.8898 38.639 20.8489 35.2039 20.8489C34.5907 20.8143 33.9811 20.9616 33.4513 21.2723C32.9216 21.5829 32.4953 22.0431 32.2261 22.595C30.1058 26.0977 29.9291 33.841 31.7428 43.2369C33.4126 51.4996 35.9975 59.5506 39.4497 67.2411ZM105.33 106.077C105.337 103.287 104.718 100.532 103.518 98.0135C102.318 95.4951 100.568 93.2781 98.3974 91.5259C97.9693 91.1781 97.6146 90.7485 97.354 90.2623C97.0935 89.776 96.9324 89.2428 96.88 88.6936C96.1837 81.4937 92.8312 74.8112 87.4758 69.9487C82.1205 65.0862 75.1463 62.3924 67.9128 62.3924C60.6793 62.3924 53.7051 65.0862 48.3497 69.9487C42.9944 74.8112 39.6418 81.4937 38.9456 88.6936C38.8932 89.2428 38.7321 89.776 38.4715 90.2623C38.211 90.7485 37.8563 91.1781 37.4281 91.5259C35.4541 93.1013 33.8195 95.0601 32.6228 97.2842C31.4261 99.5083 30.6921 101.952 30.4651 104.467C30.2381 106.982 30.5227 109.518 31.3018 111.92C32.081 114.323 33.3385 116.542 34.9985 118.446C36.6586 120.349 38.6869 121.897 40.9611 122.995C43.2353 124.094 45.7084 124.72 48.2313 124.837C50.7542 124.954 53.2746 124.559 55.6408 123.676C58.0069 122.793 60.1697 121.44 61.9988 119.698L56.9371 115.494C56.5173 115.144 56.1706 114.716 55.9165 114.232C55.6625 113.749 55.5061 113.22 55.4564 112.676C55.4067 112.132 55.4646 111.584 55.6268 111.063C55.789 110.541 56.0524 110.057 56.4018 109.637C56.7512 109.217 57.1799 108.87 57.6633 108.616C58.1467 108.362 58.6755 108.206 59.2193 108.156C59.7632 108.107 60.3115 108.164 60.833 108.327C61.3545 108.489 61.8389 108.752 62.2586 109.102L67.9128 113.82L73.5669 109.117C74.4146 108.412 75.5079 108.071 76.6062 108.172C77.7046 108.272 78.7181 108.805 79.4238 109.652C80.1295 110.5 80.4695 111.593 80.3691 112.692C80.2688 113.79 79.7362 114.804 78.8885 115.509L73.8268 119.714C76.488 122.208 79.8205 123.87 83.4141 124.496C87.0077 125.121 90.7058 124.682 94.0533 123.233C97.4007 121.784 100.252 119.388 102.255 116.34C104.259 113.292 105.327 109.725 105.33 106.077Z" fill="#432818"/>
</g>
<defs>
<clipPath id="clip0_160_77">
<rect width="133.039" height="133.039" fill="white" transform="translate(0.916016)"/>
</clipPath>
</defs>
</svg>
