<svg width="108" height="108" viewBox="0 0 108 108" fill="none" xmlns="http://www.w3.org/2000/svg">
<path d="M40.8267 87.1163C40.8267 88.005 40.4737 88.8572 39.8453 89.4856C39.2169 90.1139 38.3647 90.467 37.4761 90.467H17.3723C15.6083 90.4659 13.8757 90.0006 12.3485 89.118C10.8213 88.2353 9.55319 86.9663 8.67168 85.4384C7.79016 83.9105 7.32624 82.1775 7.32651 80.4135C7.32678 78.6496 7.79123 76.9167 8.67321 75.3891L23.0348 50.5735L17.1503 52.1441C16.724 52.258 16.2795 52.2868 15.8421 52.2288C15.4048 52.1709 14.9831 52.0274 14.6012 51.8065C13.8298 51.3603 13.2673 50.626 13.0374 49.7652C12.8075 48.9043 12.9289 47.9874 13.3751 47.216C13.8212 46.4447 14.5555 45.8822 15.4163 45.6523L29.1414 41.9792C29.5665 41.8652 30.01 41.8361 30.4464 41.8935C30.8828 41.951 31.3036 42.0939 31.6848 42.314C32.066 42.5342 32.4 42.8272 32.6679 43.1765C32.9357 43.5258 33.1322 43.9245 33.2459 44.3497L36.9274 58.0747C37.0437 58.5019 37.0742 58.9478 37.0171 59.3867C36.9601 59.8257 36.8166 60.249 36.595 60.6322C36.3735 61.0154 36.0781 61.3509 35.7261 61.6193C35.3741 61.8877 34.9724 62.0837 34.5443 62.196C34.2598 62.2701 33.9671 62.3081 33.6731 62.3091C32.936 62.3084 32.2197 62.0647 31.6352 61.6157C31.0506 61.1667 30.6305 60.5374 30.4397 59.8254L28.8482 53.899L14.4865 78.7397C14.1931 79.2479 14.0383 79.8243 14.0376 80.4111C14.0369 80.9979 14.1903 81.5746 14.4825 82.0835C14.7747 82.5924 15.1954 83.0156 15.7026 83.3108C16.2097 83.606 16.7855 83.7629 17.3723 83.7657H37.4761C38.3647 83.7657 39.2169 84.1187 39.8453 84.7471C40.4737 85.3754 40.8267 86.2277 40.8267 87.1163ZM99.7684 75.3891L90.0768 58.636C89.6131 57.9067 88.8856 57.3847 88.0463 57.1791C87.2069 56.9735 86.3205 57.1001 85.5723 57.5326C84.8241 57.9651 84.2719 58.67 84.0312 59.4999C83.7904 60.3299 83.8796 61.2208 84.2802 61.9866L93.9719 78.7397C94.2653 79.2479 94.4201 79.8243 94.4208 80.4111C94.4215 80.9979 94.2681 81.5746 93.9759 82.0835C93.6837 82.5924 93.263 83.0156 92.7558 83.3108C92.2487 83.606 91.6729 83.7629 91.0861 83.7657H62.3168L66.6475 79.435C67.2762 78.8068 67.6296 77.9547 67.63 77.0659C67.6304 76.1772 67.2777 75.3247 66.6496 74.696C66.0214 74.0672 65.1692 73.7138 64.2805 73.7134C63.3917 73.713 62.5392 74.0657 61.9105 74.6939L51.8586 84.7458C51.5471 85.0569 51.3 85.4265 51.1313 85.8332C50.9627 86.24 50.8759 86.676 50.8759 87.1163C50.8759 87.5566 50.9627 87.9927 51.1313 88.3994C51.3 88.8062 51.5471 89.1757 51.8586 89.4869L61.9105 99.5388C62.2218 99.8498 62.5914 100.096 62.998 100.265C63.4046 100.433 63.8404 100.519 64.2805 100.519C64.7205 100.519 65.1563 100.432 65.5627 100.264C65.9692 100.095 66.3385 99.848 66.6496 99.5367C66.9606 99.2254 67.2073 98.8559 67.3755 98.4492C67.5437 98.0426 67.6302 97.6068 67.63 97.1667C67.6298 96.7267 67.5429 96.291 67.3744 95.8845C67.2058 95.478 66.9588 95.1087 66.6475 94.7976L62.3168 90.467H91.0861C92.8501 90.4659 94.5827 90.0006 96.1099 89.118C97.6372 88.2353 98.9052 86.9663 99.7867 85.4384C100.668 83.9105 101.132 82.1775 101.132 80.4135C101.132 78.6496 100.667 76.9167 99.7852 75.3891H99.7684ZM54.2292 13.4025C54.8181 13.3966 55.3977 13.5489 55.9075 13.8436C56.4174 14.1383 56.8387 14.5646 57.1275 15.0778L71.4891 39.8934L65.592 38.3102C64.7442 38.1112 63.8522 38.2501 63.1051 38.6975C62.3579 39.1449 61.8143 39.8656 61.5894 40.7069C61.3645 41.5482 61.476 42.444 61.9003 43.2046C62.3245 43.9651 63.0282 44.5305 63.8623 44.7811L77.5915 48.4626C77.8745 48.537 78.1658 48.575 78.4585 48.5757C79.1955 48.575 79.9118 48.3313 80.4964 47.8823C81.0809 47.4333 81.5011 46.804 81.6918 46.0921L85.3733 32.3587C85.4997 31.9299 85.539 31.4802 85.4889 31.0359C85.4389 30.5917 85.3004 30.1621 85.0817 29.7722C84.863 29.3823 84.5686 29.0401 84.2156 28.7658C83.8627 28.4915 83.4584 28.2906 83.0266 28.1749C82.5949 28.0592 82.1443 28.031 81.7015 28.0921C81.2587 28.1532 80.8325 28.3023 80.4482 28.5306C80.0639 28.7589 79.7291 29.0618 79.4636 29.4214C79.1982 29.7811 79.0073 30.1902 78.9024 30.6247L77.3109 36.5595L62.9283 11.7272C62.0452 10.2019 60.7767 8.93571 59.2499 8.05544C57.723 7.17516 55.9916 6.71179 54.2292 6.71179C52.4668 6.71179 50.7354 7.17516 49.2086 8.05544C47.6817 8.93571 46.4132 10.2019 45.5301 11.7272L35.8301 28.4803C35.4133 29.2478 35.3127 30.1477 35.5496 30.9883C35.7866 31.8289 36.3424 32.5438 37.0987 32.9806C37.855 33.4174 38.7519 33.5417 39.5984 33.327C40.445 33.1122 41.1742 32.5754 41.6308 31.8309L51.3309 15.0778C51.6197 14.5646 52.041 14.1383 52.5509 13.8436C53.0607 13.5489 53.6403 13.3966 54.2292 13.4025Z" fill="#432818"/>
</svg>
