<svg width="35" height="32" viewBox="0 0 35 32" fill="none" xmlns="http://www.w3.org/2000/svg">
<path d="M28.133 28L19.1528 19.6C18.44 20.1333 17.6204 20.5556 16.6939 20.8667C15.7673 21.1778 14.7814 21.3333 13.7361 21.3333C11.1465 21.3333 8.9549 20.4944 7.16122 18.8167C5.36754 17.1389 4.4707 15.0889 4.4707 12.6667C4.4707 10.2444 5.36754 8.19444 7.16122 6.51667C8.9549 4.83889 11.1465 4 13.7361 4C16.3256 4 18.5172 4.83889 20.3109 6.51667C22.1046 8.19444 23.0014 10.2444 23.0014 12.6667C23.0014 13.6444 22.8351 14.5667 22.5025 15.4333C22.1699 16.3 21.7185 17.0667 21.1484 17.7333L30.1287 26.1333L28.133 28ZM13.7361 18.6667C15.5179 18.6667 17.0324 18.0833 18.2797 16.9167C19.5269 15.75 20.1506 14.3333 20.1506 12.6667C20.1506 11 19.5269 9.58333 18.2797 8.41667C17.0324 7.25 15.5179 6.66667 13.7361 6.66667C11.9543 6.66667 10.4397 7.25 9.19248 8.41667C7.94522 9.58333 7.32159 11 7.32159 12.6667C7.32159 14.3333 7.94522 15.75 9.19248 16.9167C10.4397 18.0833 11.9543 18.6667 13.7361 18.6667Z" fill="#432818"/>
</svg>
